<svg xmlns="http://www.w3.org/2000/svg" viewBox="0 0 256 256">
  <!--
    Ryuuji Logomark (256×256)
    Scaled version of the app icon for marketing and larger display contexts.
  -->
  <defs>
    <linearGradient id="iris" x1="0" y1="0" x2="0" y2="1">
      <stop offset="0%" stop-color="#FFC5D2"/>
      <stop offset="100%" stop-color="#F29CB0"/>
    </linearGradient>
    <linearGradient id="shelf" x1="0" y1="0" x2="0" y2="1">
      <stop offset="0%" stop-color="#CC6D84"/>
      <stop offset="100%" stop-color="#A64E63"/>
    </linearGradient>
    <radialGradient id="glint" cx="0.4" cy="0.3" r="0.6">
      <stop offset="0%" stop-color="#FFD88F"/>
      <stop offset="100%" stop-color="#E2AD56"/>
    </radialGradient>
  </defs>

  <!-- Iris -->
  <path
    d="M28 128 C60 84, 92 68, 128 68 C164 68, 196 84, 228 128 C196 172, 164 188, 128 188 C92 188, 60 172, 28 128Z"
    fill="url(#iris)"
    stroke="#5F1F31"
    stroke-width="4"
    stroke-linejoin="round"
  />

  <!-- Front-surface depth shelf -->
  <path
    d="M40 128 C66 164, 96 180, 128 180 C160 180, 190 164, 216 128
       L216 136 C190 172, 160 188, 128 188 C96 188, 66 172, 40 136Z"
    fill="url(#shelf)"
  />

  <!-- Slit pupil -->
  <path
    d="M128 84 C140 104, 144 120, 144 128 C144 136, 140 152, 128 172
       C116 152, 112 136, 112 128 C112 120, 116 104, 128 84Z"
    fill="#221117"
  />

  <!-- Primary catchlight -->
  <circle cx="108" cy="108" r="9" fill="#FFF7FA" opacity="0.75"/>

  <!-- Gold catchlight -->
  <circle cx="144" cy="140" r="5" fill="url(#glint)" opacity="0.85"/>
</svg>
