<svg xmlns="http://www.w3.org/2000/svg" viewBox="0 0 128 128">
  <defs>
    <linearGradient id="bg" x1="0" y1="0" x2="0" y2="1">
      <stop offset="0%" stop-color="#2E1228"/>
      <stop offset="100%" stop-color="#180A10"/>
    </linearGradient>
    <linearGradient id="iris" x1="0" y1="0" x2="0" y2="1">
      <stop offset="0%" stop-color="#FFBAB0"/>
      <stop offset="50%" stop-color="#E86880"/>
      <stop offset="100%" stop-color="#A83868"/>
    </linearGradient>
    <linearGradient id="shadow" x1="0" y1="0" x2="0" y2="1">
      <stop offset="0%" stop-color="#100818" stop-opacity="1"/>
      <stop offset="40%" stop-color="#100818" stop-opacity="0"/>
    </linearGradient>
    <linearGradient id="play" x1="0" y1="0" x2="0" y2="1">
      <stop offset="0%" stop-color="#5E2C44"/>
      <stop offset="100%" stop-color="#3A1024"/>
    </linearGradient>
    <filter id="inset-shadow">
      <feFlood flood-color="#100818" flood-opacity="0.5"/>
      <feComposite in2="SourceAlpha" operator="out"/>
      <feOffset dy="1.5"/>
      <feGaussianBlur stdDeviation="1.5"/>
      <feComposite in2="SourceAlpha" operator="in"/>
      <feMerge>
        <feMergeNode in="SourceGraphic"/>
        <feMergeNode/>
      </feMerge>
    </filter>
    <clipPath id="eye-clip">
      <path d="M17 61
         C17 56, 25 44, 36 37
         C46 31, 54 31, 62 31
         C72 31, 82 33, 92 40
         C103 47, 111 62, 111 67
         C111 72, 103 84, 92 91
         C82 97, 73 97, 66 97
         C57 97, 46 95, 36 89
         C25 82, 17 66, 17 61Z"/>
    </clipPath>
  </defs>

  <circle cx="64" cy="64" r="64" fill="url(#bg)"/>

  <g transform="rotate(5, 64, 64)">
    <path
      d="M17 61
         C17 56, 25 44, 36 37
         C46 31, 54 31, 62 31
         C72 31, 82 33, 92 40
         C103 47, 111 62, 111 67
         C111 72, 103 84, 92 91
         C82 97, 73 97, 66 97
         C57 97, 46 95, 36 89
         C25 82, 17 66, 17 61Z"
      fill="url(#iris)"
      stroke="#4A1830"
      stroke-width="4"
      stroke-linejoin="round"
    />
    <rect x="0" y="0" width="128" height="128" fill="url(#shadow)" clip-path="url(#eye-clip)"/>
    <path d="M56 50 C56 46, 59 44, 62 46 L79 59 C83 61.5, 83 66.5, 79 69 L62 82 C59 84, 56 82, 56 78Z" fill="url(#play)" filter="url(#inset-shadow)"/>  </g>
</svg>
